<?xml version="1.0" standalone="no"?>
<!DOCTYPE svg PUBLIC "-//W3C//DTD SVG 20010904//EN"
 "http://www.w3.org/TR/2001/REC-SVG-20010904/DTD/svg10.dtd">
<svg version="1.0" xmlns="http://www.w3.org/2000/svg"
 width="512.000000pt" height="512.000000pt" viewBox="0 0 512.000000 512.000000"
 preserveAspectRatio="xMidYMid meet">
<metadata>
Created by potrace 1.11, written by Peter Selinger 2001-2013
</metadata>
<g transform="translate(0.000000,512.000000) scale(0.100000,-0.100000)"
fill="#000000" stroke="none">
<path d="M3608 4068 c47 -125 151 -432 148 -435 -2 -2 -11 14 -21 35 l-19 39
-73 0 -73 -1 0 -178 0 -178 -137 0 c-139 0 -155 3 -161 29 -3 12 0 12 13 1 13
-11 15 -10 9 3 -3 9 -13 18 -22 20 -15 4 -15 5 1 6 9 0 17 6 17 12 0 5 -6 7
-12 3 -9 -5 -9 -2 1 9 11 14 11 17 0 17 -11 0 -11 2 1 10 8 5 10 10 4 10 -7 0
-14 7 -18 15 -5 13 -2 14 17 4 17 -9 20 -9 10 1 -6 7 -9 19 -6 28 4 8 -2 21
-13 30 -15 12 -15 13 -2 9 12 -4 16 -1 15 14 -1 10 -5 19 -9 19 -4 0 -8 5 -8
11 0 5 5 7 10 4 6 -3 10 -1 10 4 0 6 -6 11 -12 11 -10 0 -9 3 1 9 11 7 9 10
-7 15 -13 4 -22 17 -24 34 l-3 27 -109 0 -110 0 0 -447 c-1 -450 -1 -451 30
-447 4 0 10 -5 15 -12 4 -7 29 -14 56 -15 26 -1 59 -5 73 -9 42 -10 70 -13 65
-5 -3 5 2 11 11 14 9 4 14 9 11 13 -4 3 -1 13 6 21 10 13 9 14 -10 4 -15 -8
-24 -9 -28 -2 -4 6 -3 9 2 8 4 -2 9 1 10 6 1 5 7 13 15 17 10 7 10 9 0 9 -9 0
-10 5 -2 19 7 13 7 22 0 26 -5 3 -10 11 -10 17 0 7 6 6 15 -2 20 -16 19 -6 -1
14 -8 9 -11 16 -4 16 7 0 6 5 -2 14 -7 8 -17 11 -22 8 -5 -3 -6 0 -2 7 6 9 11
9 21 1 10 -8 15 -8 21 1 4 7 3 9 -3 6 -6 -4 -13 0 -17 8 -3 8 0 15 7 15 8 0 7
4 -3 10 -12 8 -12 10 3 16 17 6 17 7 0 20 -11 8 -13 13 -5 14 6 0 12 5 12 11
0 5 -6 7 -12 3 -10 -5 -10 -4 -1 6 6 7 9 20 5 29 -5 14 -3 14 12 -1 23 -24 29
-23 16 2 -9 16 -8 18 5 14 8 -4 15 -9 15 -13 0 -4 7 -8 15 -8 13 0 12 4 -2 21
-14 15 -14 18 -2 8 9 -6 19 -9 22 -5 4 3 7 1 7 -6 0 -7 5 -9 10 -6 6 3 10 1
10 -4 0 -6 5 -11 11 -11 5 0 7 5 4 10 -3 6 -1 10 4 10 6 0 11 -6 11 -12 0 -9
4 -8 10 2 5 8 10 10 10 4 0 -6 7 -11 15 -11 11 0 12 4 4 13 -7 8 -6 14 2 20 7
4 9 3 6 -3 -4 -6 0 -14 9 -17 8 -3 12 -11 8 -17 -4 -8 -3 -9 5 -5 6 4 8 12 5
18 -5 7 -2 8 7 2 21 -13 49 -15 49 -4 0 6 4 10 10 10 5 0 9 -3 9 -7 -1 -5 -1
-78 0 -165 1 -155 1 -156 23 -150 18 4 20 2 16 -16 -4 -14 -2 -20 4 -16 6 4
14 0 19 -7 6 -10 9 -11 9 -1 0 6 4 12 10 12 5 0 7 -8 4 -17 -5 -14 -4 -15 4
-4 5 7 14 11 20 7 6 -3 14 -1 18 5 5 8 3 9 -6 4 -8 -5 -11 -4 -6 3 8 14 36 4
32 -11 -1 -7 -1 -9 1 -4 3 4 10 4 15 1 7 -4 8 -2 4 4 -4 7 5 9 30 5 30 -5 36
-3 29 8 -8 12 -6 12 8 0 12 -9 17 -10 17 -2 0 7 5 9 12 5 7 -4 8 -3 4 5 -4 6
-13 8 -19 4 -8 -4 -7 -1 1 9 9 11 10 18 2 23 -13 8 -13 25 1 25 5 0 7 -4 4
-10 -10 -16 1 -12 15 6 11 12 11 15 -1 12 -9 -2 -13 4 -11 16 2 13 -1 16 -10
10 -10 -6 -10 -4 1 9 11 14 11 17 0 17 -8 0 -5 6 7 15 18 14 18 14 -4 10 -20
-3 -22 -2 -12 10 7 8 17 12 24 9 6 -3 3 1 -7 9 -16 13 -16 15 -1 21 14 5 14 9
3 22 -7 9 -13 24 -14 35 -1 15 1 17 13 6 13 -10 14 -9 3 11 -6 12 -8 22 -4 22
4 0 1 5 -7 11 -12 9 -11 10 8 6 12 -3 20 -1 16 4 -3 5 -12 9 -20 9 -8 0 -14 5
-14 11 0 5 4 8 8 5 5 -3 9 1 9 9 0 8 -5 15 -11 15 -5 0 -1 7 10 15 18 14 18
14 -4 10 -20 -3 -22 -2 -12 10 7 8 17 12 24 9 6 -3 3 1 -7 9 -16 13 -16 15 -1
21 14 5 14 9 3 22 -7 9 -13 24 -14 35 -1 15 1 17 13 6 13 -10 14 -9 4 9 -6 12
-8 24 -5 28 3 3 0 6 -8 7 -8 0 -6 4 6 9 17 7 17 9 3 9 -10 1 -18 6 -18 12 0 5
4 8 8 5 5 -3 9 1 9 9 0 8 -5 15 -11 15 -5 0 -1 7 10 15 18 14 18 14 -4 10 -20
-3 -22 -2 -12 10 7 8 17 12 24 9 6 -3 3 1 -6 8 -15 13 -15 15 0 26 15 10 15
11 1 6 -10 -3 -20 0 -25 7 -5 8 -3 10 5 4 9 -5 12 -2 9 11 -2 11 -10 18 -16
16 -7 -1 -12 2 -12 8 0 19 13 10 69 -47 69 -71 97 -93 124 -99 11 -2 24 -9 28
-15 4 -7 12 -8 20 -3 11 6 11 4 0 -10 -12 -15 -12 -17 0 -14 8 2 17 8 21 13 5
6 8 6 8 -2 0 -6 22 -49 50 -96 l50 -85 2 -178 c3 -162 5 -179 20 -176 18 3 42
-30 30 -43 -4 -5 -1 -5 6 -1 7 4 12 2 12 -6 0 -9 3 -10 8 -2 4 6 15 10 25 8 9
-1 15 2 12 6 -3 5 -14 7 -24 5 -10 -2 -18 3 -18 11 0 10 4 11 14 3 7 -6 13 -9
13 -5 0 4 14 -1 31 -10 26 -13 31 -13 26 -2 -3 8 1 15 8 15 7 0 12 -8 10 -19
-2 -10 0 -16 6 -13 5 4 9 13 9 21 0 8 5 14 11 14 5 0 7 -4 4 -10 -3 -6 5 -10
18 -10 14 0 28 7 31 16 3 8 2 12 -4 9 -6 -3 -7 1 -4 9 3 9 9 14 13 12 3 -2 6
7 6 20 0 16 -4 23 -14 19 -10 -4 -9 2 4 21 9 15 13 24 7 20 -5 -3 -13 1 -16
10 -3 8 -2 13 3 10 5 -3 9 6 9 19 0 22 -3 24 -17 13 -9 -7 -5 1 9 16 21 25 22
28 6 22 -20 -7 -20 -7 0 15 10 12 13 19 7 15 -7 -4 -13 -2 -13 4 0 6 -5 8 -12
4 -10 -6 -10 -5 -1 7 6 8 17 27 23 43 8 23 8 27 -4 23 -10 -4 -12 0 -9 14 3
10 9 16 14 13 5 -3 9 0 9 6 0 6 5 8 12 4 7 -4 8 -3 4 5 -4 6 -12 9 -17 6 -5
-4 -9 1 -9 9 0 10 6 13 17 9 11 -4 14 -3 9 5 -4 7 -2 12 4 12 7 0 8 6 1 19 -9
16 -7 18 15 15 21 -2 23 0 13 12 -9 11 -9 14 1 14 7 0 10 7 6 16 -3 8 -2 12 4
9 6 -3 10 -1 10 5 0 6 5 8 13 4 9 -6 9 -4 -1 8 -9 11 -10 18 -2 23 6 3 8 11 4
16 -3 5 -10 7 -15 3 -5 -3 -7 -9 -5 -13 3 -4 -4 -12 -14 -18 -15 -10 -18 -9
-16 4 2 10 8 19 14 21 7 2 10 7 7 11 -2 4 11 7 31 6 19 -2 41 3 48 11 8 7 16
10 19 7 4 -3 4 4 2 16 -2 12 0 19 5 16 11 -7 40 5 40 17 0 6 -6 6 -14 -1 -10
-8 -16 -9 -21 -1 -4 6 -1 9 6 8 7 -2 13 2 14 9 0 6 4 15 9 20 5 5 6 3 2 -4 -4
-7 -2 -13 3 -13 6 0 12 5 12 10 3 20 6 26 36 72 29 45 31 47 47 29 13 -15 14
-18 1 -18 -8 0 -12 4 -9 9 3 4 0 8 -7 8 -6 0 -9 -8 -6 -20 3 -13 1 -18 -6 -13
-6 4 -8 -1 -5 -15 4 -15 2 -19 -8 -15 -8 3 -14 0 -14 -7 0 -6 -5 -8 -12 -4 -9
5 -9 2 1 -9 9 -12 10 -17 2 -17 -7 0 -10 -4 -6 -9 3 -5 17 2 30 15 14 14 23
30 20 35 -4 5 2 9 11 9 10 0 14 3 11 6 -3 4 4 15 17 25 17 13 22 25 18 41 -4
16 -2 19 9 13 11 -7 11 -5 -1 10 -8 10 -10 16 -4 12 13 -8 27 19 18 34 -3 5 3
9 13 9 17 1 17 2 -1 15 -11 8 -14 15 -7 15 7 0 9 5 5 12 -4 7 -3 8 5 4 6 -4 8
-12 5 -18 -4 -7 -2 -8 4 -4 9 5 9 13 1 28 -6 11 -7 18 -1 14 5 -3 15 1 22 9 7
8 9 15 4 15 -4 0 -3 5 4 12 8 8 8 17 1 31 -9 15 -8 18 2 12 9 -6 11 -3 6 8 -4
12 -1 17 11 17 13 0 14 2 4 8 -7 5 -10 16 -6 25 3 9 11 14 17 10 5 -3 7 -1 3
5 -3 5 0 13 6 16 7 3 2 3 -12 0 -21 -4 -22 -3 -7 6 10 6 14 16 10 23 -4 8 -1
7 9 -1 14 -11 16 -10 11 7 -3 12 -10 18 -16 14 -6 -3 -7 -1 -3 6 4 6 11 9 15
6 5 -2 14 8 20 23 10 22 10 25 0 15 -7 -7 -20 -13 -29 -13 -8 1 3 9 25 20 22
11 34 19 27 20 -7 0 -10 5 -7 10 3 6 -2 10 -12 11 -16 0 -16 1 2 8 11 5 23 7
26 5 3 -2 5 12 3 31 -2 25 1 33 9 28 7 -3 8 -2 4 2 -12 14 -36 14 -31 1 3 -7
-6 -21 -18 -32 -18 -15 -20 -15 -9 -1 7 9 11 17 8 17 -4 0 0 19 9 42 16 45 14
56 -7 35 -8 -7 -54 -42 -104 -76 -80 -55 -91 -67 -111 -116 -12 -29 -19 -56
-16 -59 3 -3 1 -6 -5 -6 -17 0 -23 13 -12 27 6 7 9 13 5 13 -4 0 1 14 10 32
l16 31 -48 -35 c-27 -20 -89 -63 -139 -95 -172 -114 -231 -205 -237 -361 -1
-25 -5 -38 -9 -30 -4 6 -5 16 -2 20 2 5 -1 16 -9 25 -7 9 -8 14 -2 10 7 -4 12
2 12 18 0 16 -5 22 -12 18 -6 -4 -5 1 3 10 13 16 8 22 -14 17 -5 -1 -1 9 10
21 20 22 20 22 -1 11 -16 -9 -21 -8 -21 3 0 8 5 12 11 9 6 -3 4 0 -5 8 -9 7
-21 24 -28 37 -27 50 -99 116 -201 184 -58 39 -122 83 -142 99 -33 26 -38 27
-38 11 0 -12 -5 -8 -16 13 -8 16 -29 38 -47 49 -18 10 -65 42 -104 72 -40 29
-74 53 -77 53 -2 0 12 -42 32 -92z m232 -122 c0 -3 -4 -8 -10 -11 -5 -3 -10
-1 -10 4 0 6 5 11 10 11 6 0 10 -2 10 -4z m848 -226 c-12 -16 -27 -30 -32 -30
-6 0 -4 5 4 10 8 5 11 10 6 10 -5 0 1 9 14 20 32 28 34 25 8 -10z m143 17 c-6
-8 -8 -17 -4 -20 3 -4 1 -7 -5 -7 -15 0 -15 13 0 28 16 16 23 15 9 -1z m-971
-45 c0 -12 -3 -12 -15 -2 -8 7 -15 13 -15 15 0 1 7 2 15 2 8 0 15 -7 15 -15z
m10 -26 c0 -3 -4 -8 -10 -11 -5 -3 -10 -1 -10 4 0 6 5 11 10 11 6 0 10 -2 10
-4z m242 -118 c28 -38 81 -128 75 -128 -2 0 -26 34 -53 75 -29 45 -55 74 -64
72 -8 -1 -15 6 -15 15 0 10 -6 23 -13 30 -6 6 -12 16 -12 20 0 11 51 -41 82
-84z m-317 12 l20 -25 -22 19 c-13 11 -23 24 -23 29 0 6 1 8 3 6 1 -2 11 -15
22 -29z m960 -19 c3 -5 1 -12 -5 -16 -5 -3 -10 1 -10 9 0 18 6 21 15 7z m-812
-117 l32 -25 -32 15 c-17 9 -41 29 -52 45 -27 38 -27 55 0 19 11 -15 35 -39
52 -54z m478 54 c-4 -13 -6 -30 -4 -38 4 -13 3 -13 -6 0 -5 8 -8 17 -7 20 2 3
6 13 9 23 4 9 9 17 11 17 3 0 2 -10 -3 -22z m-123 -96 c6 14 16 29 22 33 7 4
4 -8 -6 -26 -10 -19 -19 -40 -20 -47 -1 -8 -6 -17 -10 -20 -4 -4 -4 1 -1 10 3
9 2 18 -3 20 -4 2 -11 26 -14 53 l-5 50 13 -50 c13 -49 14 -49 24 -23z m-64
-9 c-3 -16 -10 -32 -16 -38 -8 -7 -9 -4 -4 10 5 11 9 27 11 35 5 20 4 20 9 20
3 0 2 -12 0 -27z m331 5 c-7 -33 -20 -41 -36 -21 -13 16 -12 17 4 4 11 -9 17
-10 18 -2 1 6 3 16 4 21 1 6 3 12 4 15 4 16 9 1 6 -17z m-76 -22 c-2 -2 -17
-6 -34 -10 -22 -5 -26 -4 -15 4 14 9 59 15 49 6z m-19 -96 c0 -5 -5 -10 -11
-10 -5 0 -7 5 -4 10 3 6 8 10 11 10 2 0 4 -4 4 -10z m-645 -20 c3 -5 1 -10 -4
-10 -6 0 -11 5 -11 10 0 6 2 10 4 10 3 0 8 -4 11 -10z m-296 -103 c8 -10 7
-14 -2 -14 -8 0 -14 6 -14 14 0 7 1 13 2 13 2 0 8 -6 14 -13z m296 -137 c3 -5
1 -10 -4 -10 -6 0 -11 5 -11 10 0 6 2 10 4 10 3 0 8 -4 11 -10z m-610 -200
c-3 -5 -12 -10 -18 -10 -7 0 -6 4 3 10 19 12 23 12 15 0z m35 -14 c0 -3 -4 -8
-10 -11 -5 -3 -10 -1 -10 4 0 6 5 11 10 11 6 0 10 -2 10 -4z"/>
<path d="M4955 4121 c-3 -5 -2 -12 3 -15 5 -3 9 1 9 9 0 17 -3 19 -12 6z"/>
<path d="M2485 3706 c-67 -17 -105 -38 -149 -82 -96 -96 -93 -246 6 -346 18
-18 32 -37 30 -41 -1 -5 2 -6 7 -3 5 4 16 -1 24 -9 9 -8 23 -15 31 -15 9 0 16
-5 16 -11 0 -6 7 -9 15 -6 8 4 17 1 21 -5 5 -7 2 -8 -7 -3 -8 5 -11 4 -6 -1 5
-5 14 -9 20 -9 7 -1 11 -7 9 -14 -1 -7 2 -10 7 -6 6 3 9 11 7 18 -1 7 -1 9 1
4 3 -4 10 -4 15 -1 7 5 8 2 3 -6 -6 -10 -4 -12 7 -7 9 3 25 -3 36 -13 15 -14
22 -16 32 -7 10 9 11 7 5 -13 -7 -25 -7 -25 10 -5 9 11 13 14 9 6 -5 -11 -3
-13 10 -8 14 6 17 3 12 -10 -4 -10 -4 -14 0 -10 4 4 14 1 23 -6 14 -11 15 -10
2 8 -7 11 -2 7 13 -8 31 -34 33 -50 7 -76 -28 -28 -87 -37 -135 -20 -43 15
-96 73 -99 108 -1 19 -6 21 -37 16 -19 -2 -62 -7 -95 -10 -95 -9 -94 -9 -83
-58 5 -23 18 -61 29 -83 21 -45 130 -152 147 -146 6 2 20 -6 31 -17 12 -12 21
-18 21 -14 0 4 6 -1 13 -12 11 -14 16 -15 22 -5 6 9 9 9 15 0 4 -6 13 -12 21
-13 8 -2 20 -7 28 -11 11 -7 13 -5 8 6 -4 12 -1 14 14 11 10 -3 17 -9 14 -12
-2 -4 2 -8 10 -8 8 0 12 5 9 11 -3 6 2 2 11 -9 16 -20 16 -19 11 6 -5 29 4 31
43 10 22 -12 23 -12 17 5 -5 17 -5 18 7 2 12 -15 14 -15 24 0 10 16 12 15 27
-3 15 -19 15 -19 10 9 -5 27 -4 27 13 11 11 -12 18 -14 21 -6 2 6 9 8 14 5 7
-5 8 -2 3 6 -6 10 -4 12 9 7 11 -5 15 -3 10 5 -5 7 -2 9 8 5 18 -6 53 29 53
53 0 8 7 14 16 14 17 -1 19 12 6 33 -6 9 -3 11 9 6 14 -5 15 -3 4 16 -10 20
-10 22 7 12 17 -9 19 -6 17 25 -2 19 -6 40 -10 46 -5 7 -2 9 9 5 11 -4 14 -2
10 8 -3 8 -9 13 -13 10 -5 -3 -12 0 -16 6 -4 8 -3 9 4 5 8 -5 12 1 12 14 0 14
4 19 13 14 8 -5 8 -2 -2 9 -7 9 -19 17 -26 17 -16 0 -13 29 4 40 9 5 10 10 2
14 -6 4 -11 2 -11 -3 0 -6 -5 -11 -10 -11 -6 0 -9 3 -8 8 6 31 -65 110 -133
146 -26 15 -83 40 -126 56 -142 52 -144 53 -139 73 3 14 2 16 -9 7 -10 -8 -15
-8 -20 0 -4 6 -4 14 -1 17 3 4 6 1 6 -7 0 -10 3 -10 15 0 8 7 12 16 9 21 -3 5
0 17 6 26 10 16 10 15 5 -4 -5 -17 -2 -22 14 -20 11 0 17 5 15 9 -3 4 1 8 8 9
7 0 21 2 30 4 10 2 22 -4 28 -13 8 -15 9 -15 10 3 1 17 5 15 29 -12 15 -18 35
-33 44 -33 9 0 19 -4 22 -10 4 -6 -1 -7 -12 -3 -19 7 -18 5 11 -17 11 -8 17
-10 13 -4 -4 7 0 15 9 18 8 3 12 2 9 -4 -3 -6 1 -10 10 -10 10 0 13 5 9 13 -5
7 0 6 11 -3 17 -14 18 -13 12 2 -3 10 -2 20 4 23 5 4 9 3 8 -2 -3 -19 2 -33
12 -33 5 0 7 4 4 10 -3 6 1 7 10 4 11 -5 14 -2 9 12 -4 14 -3 15 4 6 8 -12 62
-25 62 -15 0 2 -4 12 -9 22 -7 13 -6 18 4 18 7 0 11 -6 8 -13 -2 -6 1 -15 8
-20 9 -5 10 -2 6 9 -3 10 -2 17 4 17 5 0 4 6 -3 14 -7 8 -17 11 -22 8 -5 -3
-6 0 -2 7 10 16 -2 64 -14 56 -5 -3 -11 -1 -15 5 -3 5 -1 10 5 10 23 0 -106
104 -159 127 -67 30 -182 38 -256 19z m480 -725 c-9 -8 -36 -10 -30 -2 2 4 11
8 20 8 8 0 13 -3 10 -6z m-75 -142 c-9 -16 -14 -18 -26 -8 -8 6 -12 14 -9 18
3 3 10 0 14 -8 7 -10 10 -9 14 3 4 9 9 16 12 16 3 0 1 -9 -5 -21z m-60 -15 c0
-8 -19 -13 -24 -6 -3 5 1 9 9 9 8 0 15 -2 15 -3z m-323 -36 c-3 -8 -6 -5 -6 6
-1 11 2 17 5 13 3 -3 4 -12 1 -19z m63 -4 c0 -8 -19 -13 -24 -6 -3 5 1 9 9 9
8 0 15 -2 15 -3z"/>
<path d="M110 3254 c0 -447 0 -452 20 -447 18 5 25 -4 21 -29 0 -4 18 -7 42
-7 23 0 52 -2 65 -5 13 -3 20 -1 17 5 -4 5 -10 7 -15 4 -5 -3 -11 -1 -15 4 -7
12 26 6 56 -10 18 -9 24 -9 27 0 3 9 8 9 20 -1 9 -8 13 -8 9 -2 -4 7 0 14 8
18 8 3 15 11 15 18 0 9 -2 10 -8 2 -5 -9 -11 -8 -20 2 -10 11 -10 14 2 14 24
0 26 29 3 51 -12 12 -17 19 -12 16 16 -8 38 30 23 39 -7 5 -8 3 -3 -6 5 -9 4
-11 -4 -6 -6 4 -8 13 -4 19 4 7 8 19 8 27 0 8 4 20 8 27 4 6 4 14 -1 17 -4 2
-9 19 -10 38 -2 25 0 29 8 18 6 -9 10 -10 10 -3 0 7 -8 17 -17 22 -17 10 -17
10 0 11 12 0 16 4 11 13 -5 8 -2 7 9 -2 15 -12 17 -12 12 0 -4 10 1 15 14 15
15 0 17 -3 9 -13 -13 -16 -5 -16 35 0 18 8 38 12 46 9 10 -3 11 0 5 9 -7 12
-5 12 9 0 18 -15 23 -26 7 -16 -5 3 -10 1 -10 -4 0 -16 16 -13 30 4 10 12 16
13 26 4 13 -11 18 -5 15 14 -1 5 3 6 9 2 6 -3 8 -10 5 -15 -6 -9 25 -23 33
-15 3 3 0 5 -6 5 -7 0 -12 7 -12 15 0 8 5 15 11 15 5 0 7 -4 4 -10 -3 -5 0
-10 7 -10 8 0 15 8 16 18 1 9 3 31 4 47 2 19 8 29 16 27 8 -1 11 2 7 8 -3 6
-10 8 -14 6 -4 -3 -8 5 -8 17 -2 17 0 19 7 7 8 -13 11 -13 22 -1 9 10 10 12 1
7 -9 -5 -11 -2 -7 8 4 10 1 16 -7 16 -11 0 -11 3 1 11 12 9 11 10 -6 6 -19 -4
-21 -1 -18 22 l4 26 -137 -1 c-76 -1 -145 2 -153 7 -9 5 -10 9 -3 9 6 0 11 9
10 19 0 11 -6 17 -12 13 -5 -3 -4 2 4 11 9 11 10 17 2 17 -6 0 -11 5 -11 11 0
5 5 7 12 3 8 -5 9 0 6 14 -4 12 -1 25 4 29 7 4 8 1 3 -7 -5 -8 -4 -11 3 -7 5
4 8 17 6 30 -2 12 -2 16 2 9 3 -6 11 -9 17 -5 7 4 8 0 4 -11 -5 -12 -3 -15 6
-9 6 4 20 6 31 4 13 -2 16 1 10 11 -5 9 -2 8 11 -2 11 -9 16 -10 11 -2 -4 6
-2 12 3 12 6 0 11 -4 11 -9 0 -5 7 -11 15 -15 8 -3 14 -2 14 2 -3 18 2 26 9
14 5 -7 18 -14 30 -17 16 -3 19 0 15 13 -5 14 -2 14 18 -3 18 -15 20 -16 10
-2 -9 12 -10 17 -2 17 6 0 14 -7 17 -15 6 -14 8 -13 21 2 14 17 14 17 9 -2 -6
-20 -6 -20 9 -1 8 11 15 14 15 8 0 -7 5 -12 11 -12 5 0 7 4 4 10 -4 6 1 7 12
3 16 -6 16 -5 4 10 -16 20 -2 23 18 5 11 -11 12 -10 6 2 -14 23 -15 60 -2 60
9 0 9 2 1 8 -12 8 -25 74 -13 66 4 -2 11 1 15 7 4 7 3 9 -3 6 -15 -9 -54 22
-51 41 3 16 -21 17 -279 18 l-283 1 0 -453z m593 321 c4 -8 3 -16 -1 -19 -4
-3 -9 4 -9 15 -2 23 3 25 10 4z m-333 -581 c0 -2 -7 -4 -15 -4 -8 0 -15 4 -15
10 0 5 7 7 15 4 8 -4 15 -8 15 -10z m-5 -143 c3 -5 2 -12 -3 -15 -5 -3 -9 1
-9 9 0 17 3 19 12 6z"/>
<path d="M768 3701 c0 -3 -2 -205 -3 -448 -1 -312 2 -443 9 -444 6 -1 18 -2
27 -2 10 0 15 -6 12 -17 -2 -9 4 -23 13 -31 10 -8 15 -9 11 -2 -17 27 50 38
97 15 25 -12 28 -12 23 0 -3 8 1 15 9 15 7 0 12 -3 10 -6 -2 -3 2 -11 9 -18
10 -10 14 -9 19 3 4 10 2 13 -7 8 -9 -5 -8 -3 1 7 11 12 14 12 22 -1 6 -9 10
-10 10 -3 0 6 -5 15 -10 18 -7 5 -8 11 -1 19 6 7 6 17 1 26 -5 8 -7 17 -4 22
3 4 7 27 9 50 3 28 1 38 -5 28 -5 -8 -7 -17 -5 -20 2 -4 -2 -7 -10 -7 -11 0
-9 7 6 29 12 17 16 28 8 28 -8 0 -8 5 2 17 10 11 10 14 2 9 -13 -7 -18 6 -6
17 3 4 8 18 9 32 2 23 -6 30 -30 26 -5 -1 -3 5 4 14 17 21 17 21 130 -148 60
-90 101 -142 112 -142 10 0 23 -7 30 -15 11 -12 11 -12 -4 -1 -10 8 -18 9 -18
3 0 -14 34 -25 38 -13 2 6 8 11 13 11 6 0 7 -4 4 -10 -4 -6 1 -7 11 -3 13 5
15 3 9 -8 -6 -11 -5 -11 5 -2 7 6 18 9 25 7 7 -3 16 -1 19 4 3 5 -6 8 -19 6
-14 -1 -27 1 -29 5 -8 12 87 6 111 -7 19 -11 21 -10 18 13 -2 19 1 23 10 15
10 -8 15 -8 21 1 4 7 3 9 -3 6 -6 -4 -13 0 -17 8 -3 8 -1 15 3 15 5 0 12 7 15
16 3 8 2 13 -3 10 -5 -3 -8 7 -7 23 0 16 3 28 6 26 3 -2 11 3 18 11 7 8 8 14
2 14 -5 0 -10 5 -10 11 0 5 4 8 9 4 5 -3 12 -1 15 4 12 20 -12 20 -32 0 -12
-11 -22 -18 -22 -17 0 2 4 18 9 36 l10 32 -55 0 c-30 0 -56 -1 -58 -2 -10 -7
-46 37 -41 49 2 8 1 12 -3 10 -9 -6 -26 13 -30 33 -2 8 -8 16 -12 18 -5 2 -4
9 3 17 8 9 16 10 24 3 9 -7 11 -4 8 11 -2 11 1 24 7 27 6 4 8 3 5 -3 -4 -6 -1
-13 6 -16 15 -6 16 19 3 43 -7 12 -6 13 5 3 24 -23 42 -16 35 15 l-6 27 16
-25 c9 -15 13 -18 10 -6 -5 14 -2 17 10 12 14 -5 15 -4 4 9 -10 12 -10 15 1
15 9 1 7 6 -6 16 -20 16 -19 16 4 9 15 -5 21 -4 17 3 -3 6 -1 14 5 17 5 4 8
14 4 22 -4 13 -3 14 10 3 13 -11 14 -10 9 4 -3 9 -9 16 -13 16 -4 0 -7 11 -7
25 0 14 6 25 13 25 7 0 10 7 7 15 -4 8 -11 12 -18 8 -6 -3 -6 -1 2 8 17 18 15
27 -5 32 -17 4 -17 5 0 6 23 1 22 18 -2 33 -14 9 -17 16 -10 24 8 9 3 17 -16
30 -14 9 -24 19 -21 21 2 2 -14 24 -36 48 -39 42 -98 79 -149 92 -34 8 -429
12 -431 4z m382 -228 c0 16 2 15 19 -2 33 -33 31 -82 -4 -116 -21 -21 -33 -25
-89 -25 l-66 0 10 25 c5 14 7 25 4 25 -4 0 0 8 7 17 8 9 9 14 4 11 -6 -4 -18
0 -28 7 -15 11 -15 14 -3 18 8 3 13 14 11 25 -2 14 2 18 18 17 12 -1 28 3 36
9 11 8 13 8 7 -1 -4 -8 -1 -13 9 -13 9 0 13 5 10 10 -11 17 7 11 21 -7 12 -16
12 -15 8 7 l-5 25 15 -25 c12 -19 15 -21 16 -7z m-133 -86 c0 -8 -6 -14 -14
-14 -9 0 -10 4 -2 14 6 7 12 13 14 13 1 0 2 -6 2 -13z m409 -89 c3 -4 -1 -5
-10 -4 -8 1 -18 5 -22 8 -3 4 1 5 10 4 8 -1 18 -5 22 -8z m-410 -258 c0 -12
-4 -16 -9 -11 -5 5 -6 14 -3 20 10 15 12 14 12 -9z m-3 -155 c-3 -9 -8 -14
-10 -11 -3 3 -2 9 2 15 9 16 15 13 8 -4z"/>
<path d="M1556 3701 c-2 -3 -3 -205 -3 -448 0 -467 -2 -451 40 -444 4 0 7 -6
7 -15 0 -9 -5 -12 -12 -8 -6 4 -8 3 -5 -4 4 -5 17 -8 30 -5 18 4 19 3 7 -7
-12 -9 -11 -10 9 -5 18 6 22 4 16 -6 -6 -11 -5 -11 5 -2 7 6 18 9 25 7 7 -3
16 -1 19 4 3 5 -6 8 -19 6 -14 -1 -27 1 -29 5 -6 9 86 7 102 -3 7 -4 9 -12 6
-18 -4 -7 -2 -8 4 -4 9 5 9 13 1 29 -9 20 -9 20 4 5 14 -18 63 -26 53 -9 -8
13 55 6 84 -9 17 -9 25 -10 28 -1 2 6 8 11 13 11 6 0 7 -4 4 -10 -4 -6 1 -7
11 -3 13 5 15 3 9 -8 -6 -11 -5 -11 5 -2 7 6 18 9 25 7 7 -3 16 -1 19 4 3 5
-6 8 -19 6 -14 -1 -27 1 -29 5 -6 9 86 7 102 -3 7 -4 10 -12 7 -17 -4 -5 -1
-9 4 -9 6 0 11 8 11 17 0 12 3 14 10 7 14 -14 72 -5 63 10 -4 6 1 5 11 -3 15
-12 17 -12 14 0 -2 8 -7 17 -13 21 -6 5 -3 8 7 8 12 0 15 5 11 17 -4 11 -3 14
5 9 7 -4 12 -2 12 3 0 6 -4 11 -8 11 -5 0 -9 7 -9 15 0 13 4 12 21 -2 15 -13
17 -14 9 -2 -10 12 -10 18 -1 27 7 7 8 12 4 12 -5 0 -1 12 9 26 9 15 12 23 6
20 -6 -4 -11 0 -11 11 -1 17 -1 17 -11 1 -11 -20 -29 -24 -29 -7 0 5 6 7 13 3
9 -5 9 -4 0 6 -6 7 -9 19 -6 26 4 12 -28 14 -188 15 -107 1 -197 1 -201 1 -3
-1 -11 5 -18 13 -9 11 -7 12 10 8 16 -4 19 -2 14 11 -3 9 -11 13 -18 10 -6 -3
0 4 13 15 13 12 18 21 12 21 -13 0 -15 46 -2 55 5 3 13 0 17 -6 5 -8 3 -9 -6
-4 -9 6 -11 4 -5 -5 6 -10 13 -7 27 11 11 13 17 19 14 13 -3 -7 1 -15 10 -18
8 -3 12 -2 9 4 -3 6 1 7 9 4 9 -3 13 -11 9 -18 -3 -6 -1 -6 8 2 7 6 17 12 22
12 4 0 5 -6 1 -12 -4 -7 3 -4 16 7 13 11 20 15 17 8 -4 -6 -3 -14 2 -17 5 -4
11 1 13 11 3 15 4 15 21 -1 9 -10 17 -13 17 -7 0 13 22 10 33 -4 5 -6 7 -4 4
5 -2 8 -10 14 -16 12 -6 -1 -11 2 -11 8 0 15 16 12 30 -5 7 -8 16 -12 21 -9 5
3 9 -1 10 -8 1 -7 5 -2 9 12 4 14 8 18 9 9 1 -20 44 -14 63 9 8 9 8 13 2 9
-17 -10 -27 23 -13 39 6 8 7 14 2 14 -5 0 -10 7 -10 15 0 10 4 12 12 5 9 -8
11 -4 7 15 -2 14 -9 25 -16 25 -6 0 -3 5 7 11 14 8 15 14 7 24 -6 8 -18 11
-25 9 -8 -4 -15 3 -17 18 -3 23 -4 23 -155 23 -116 1 -156 4 -165 14 -11 11
-10 13 2 6 12 -6 13 -5 3 5 -8 9 -9 19 -3 31 7 13 6 22 -6 33 -9 9 -11 16 -4
16 6 0 9 4 5 9 -3 5 0 13 6 17 8 4 9 3 5 -4 -5 -8 2 -12 19 -12 18 0 24 4 19
13 -5 7 0 6 11 -3 14 -11 17 -12 11 -1 -6 9 -5 12 5 9 8 -3 13 -14 11 -24 -2
-17 -1 -17 7 -3 8 12 21 15 47 12 27 -3 34 -1 28 9 -5 8 -1 7 11 -2 11 -9 16
-10 11 -2 -4 6 -2 12 3 12 6 0 11 -4 11 -9 0 -5 7 -11 15 -15 8 -3 14 -2 14 2
-3 19 2 22 16 8 17 -17 49 -11 38 8 -4 6 2 4 12 -4 14 -11 17 -12 11 -1 -6 9
-5 12 5 9 8 -3 13 -14 11 -24 -2 -15 -1 -16 7 -5 5 8 7 21 4 30 -4 13 -3 14 5
2 6 -8 21 -16 33 -18 22 -3 23 -3 5 10 -15 11 -16 16 -6 22 8 5 11 4 6 -3 -4
-7 1 -10 14 -9 20 1 29 17 10 17 -7 0 -7 6 -1 18 6 11 6 24 1 33 -7 10 -4 16
8 21 16 6 16 7 0 7 -10 1 -18 6 -18 12 0 5 3 8 8 6 4 -3 7 10 7 28 0 28 -2 32
-17 24 -10 -5 -19 -7 -19 -4 -1 3 -3 10 -4 15 -1 6 -3 16 -4 24 -1 11 -57 13
-306 13 -168 0 -307 -3 -309 -6z m609 -401 c3 -5 1 -10 -4 -10 -6 0 -11 5 -11
10 0 6 2 10 4 10 3 0 8 -4 11 -10z m56 -379 c-6 -10 -7 -22 -3 -26 4 -5 1 -5
-6 -1 -9 5 -9 12 -2 27 6 10 13 19 16 19 2 0 0 -8 -5 -19z m-96 -130 c3 -5 2
-12 -3 -15 -5 -3 -9 1 -9 9 0 17 3 19 12 6z"/>
<path d="M4210 3681 c0 -6 4 -13 10 -16 6 -3 7 1 4 9 -7 18 -14 21 -14 7z"/>
<path d="M3270 3660 c0 -5 5 -10 11 -10 5 0 7 5 4 10 -3 6 -8 10 -11 10 -2 0
-4 -4 -4 -10z"/>
<path d="M1445 3361 c-3 -5 -2 -12 3 -15 5 -3 9 1 9 9 0 17 -3 19 -12 6z"/>
<path d="M2492 3070 c7 -10 14 -18 15 -16 6 6 -9 36 -18 36 -5 0 -4 -9 3 -20z"/>
<path d="M1491 2897 c-6 -8 -8 -17 -4 -20 12 -12 19 -7 19 13 0 24 0 24 -15 7z"/>
<path d="M874 2768 c-3 -5 -3 -12 0 -15 3 -4 6 -1 6 5 0 6 10 9 21 7 12 -3 19
-1 15 2 -11 11 -35 12 -42 1z"/>
<path d="M1390 2772 c0 -5 7 -9 15 -9 8 0 12 4 9 9 -3 4 -9 8 -15 8 -5 0 -9
-4 -9 -8z"/>
<path d="M1710 2772 c0 -5 7 -9 15 -9 8 0 12 4 9 9 -3 4 -9 8 -15 8 -5 0 -9
-4 -9 -8z"/>
<path d="M1830 2762 c0 -10 3 -13 8 -6 4 6 15 10 25 8 11 -1 16 0 13 4 -15 15
-46 11 -46 -6z"/>
<path d="M2030 2772 c0 -5 7 -9 15 -9 8 0 12 4 9 9 -3 4 -9 8 -15 8 -5 0 -9
-4 -9 -8z"/>
<path d="M2665 2770 c-3 -5 -5 -10 -3 -11 33 -8 38 -7 27 7 -14 17 -16 17 -24
4z"/>
<path d="M2751 2764 c0 -11 3 -14 6 -6 3 7 2 16 -1 19 -3 4 -6 -2 -5 -13z"/>
<path d="M3073 2767 c0 -8 6 -14 13 -14 7 0 10 6 7 14 -3 7 -8 13 -12 13 -4 0
-8 -6 -8 -13z"/>
<path d="M3110 2766 c7 -7 13 -7 20 0 6 6 3 10 -10 10 -13 0 -16 -4 -10 -10z"/>
<path d="M3150 2772 c0 -5 7 -9 15 -9 8 0 12 4 9 9 -3 4 -9 8 -15 8 -5 0 -9
-4 -9 -8z"/>
<path d="M3196 2762 c-3 -5 1 -9 9 -9 8 0 12 4 9 9 -3 4 -7 8 -9 8 -2 0 -6 -4
-9 -8z"/>
<path d="M4238 2574 c-93 -24 -163 -77 -193 -147 -19 -47 -18 -132 3 -179 19
-43 85 -118 104 -118 5 0 6 -5 3 -10 -4 -6 -3 -10 2 -9 20 3 44 -2 40 -8 -3
-5 5 -17 16 -28 l20 -20 -12 23 c-8 14 -8 22 -1 22 5 0 10 -5 10 -11 0 -5 4
-8 9 -4 5 3 13 0 17 -6 5 -8 3 -9 -7 -4 -8 5 -10 4 -6 0 12 -14 37 -15 37 -2
0 7 4 6 9 -3 6 -8 8 -17 6 -20 -2 -4 2 -7 10 -7 8 0 12 4 9 9 -9 15 8 8 24
-10 10 -10 13 -12 8 -5 -6 10 -4 12 8 7 9 -3 16 -10 16 -15 0 -5 5 -9 11 -9 5
0 7 6 4 13 -4 6 -1 5 7 -4 7 -9 18 -18 23 -20 6 -2 9 -7 7 -12 -1 -4 4 -6 10
-5 7 2 14 -8 16 -23 6 -54 -75 -82 -151 -52 -31 13 -36 19 -33 39 3 14 1 22
-5 19 -5 -4 -6 -11 -3 -17 4 -7 2 -8 -4 -4 -6 4 -9 13 -5 22 3 9 0 14 -8 12
-8 -2 -15 7 -17 21 -4 22 -6 23 -60 18 -32 -4 -79 -9 -105 -13 l-49 -7 7 -36
c8 -48 39 -110 69 -142 14 -15 22 -30 18 -34 -4 -4 -2 -5 3 -3 14 4 56 -27 48
-36 -4 -4 0 -4 10 0 11 4 19 0 23 -10 3 -9 10 -13 15 -10 5 3 9 -2 9 -10 0 -9
5 -16 11 -16 5 0 7 4 4 10 -3 6 1 7 9 4 9 -3 14 -9 11 -14 -2 -4 7 -6 20 -4
14 1 25 -2 25 -8 0 -7 5 -6 14 1 11 9 16 9 22 0 5 -8 3 -9 -6 -4 -8 5 -11 4
-6 -3 7 -12 31 -6 54 11 9 7 12 7 10 -3 -2 -7 3 -15 11 -18 8 -2 11 0 7 6 -3
6 -2 14 4 17 6 4 10 3 9 -2 -3 -20 2 -34 11 -28 6 4 8 11 5 16 -3 5 1 6 9 3 9
-3 13 -11 9 -18 -5 -8 -3 -8 8 1 8 6 18 11 22 11 5 0 12 4 15 8 4 4 1 4 -7 -1
-10 -6 -12 -4 -7 4 5 8 12 9 19 2 8 -6 19 -5 31 5 10 7 23 11 29 7 6 -3 7 -1
3 5 -4 7 -3 12 3 12 5 0 12 -6 14 -12 3 -7 6 -2 6 12 1 18 4 21 10 12 6 -10
10 -8 14 8 3 12 10 19 16 15 6 -3 11 1 11 10 0 11 5 15 15 12 16 -7 30 9 16
17 -12 8 -7 41 7 41 24 0 34 22 17 39 -13 12 -13 16 -3 16 11 0 13 13 11 51
-3 30 1 57 8 65 7 9 8 14 3 13 -23 -4 -45 2 -39 11 4 6 11 8 16 5 15 -10 10 2
-8 16 -14 12 -16 12 -8 0 6 -10 4 -12 -4 -6 -7 4 -11 16 -8 26 3 10 2 17 -2
16 -4 -1 -21 13 -36 31 -39 46 -83 73 -195 116 -124 48 -139 56 -152 81 -10
18 -10 19 7 5 17 -14 18 -14 6 9 -8 15 -9 21 -2 17 6 -4 11 -2 11 4 0 6 4 9 8
6 4 -2 14 -1 22 4 10 6 21 3 34 -8 11 -9 16 -12 13 -6 -14 24 32 22 50 -2 10
-13 23 -24 30 -24 12 0 17 -13 14 -33 -1 -5 3 -6 8 -3 5 4 13 2 16 -4 5 -8 11
-7 21 1 8 6 14 8 14 4 0 -4 6 -2 14 4 11 9 16 9 22 0 5 -8 3 -9 -6 -4 -9 5
-11 4 -6 -4 10 -15 29 -3 22 14 -3 8 2 11 15 8 10 -3 16 -9 13 -14 -3 -5 0 -9
5 -9 6 0 11 10 11 23 0 15 3 18 8 9 5 -8 16 -10 27 -6 14 6 16 4 10 -7 -7 -12
-5 -12 6 -1 12 11 12 14 0 21 -11 7 -10 10 5 14 18 4 18 5 1 6 -14 1 -17 6
-12 22 5 16 4 19 -6 14 -9 -6 -11 -4 -6 8 3 9 -1 18 -10 21 -9 4 -13 14 -10
26 3 11 1 18 -3 15 -5 -3 -19 8 -33 24 -29 35 -118 86 -167 97 -53 11 -133 11
-182 -2z m263 -277 c-10 -9 -11 -8 -5 6 3 10 9 15 12 12 3 -3 0 -11 -7 -18z
m182 -292 c-3 -9 -8 -14 -10 -11 -3 3 -2 9 2 15 9 16 15 13 8 -4z m-119 -251
c3 -8 2 -12 -4 -9 -6 3 -10 10 -10 16 0 14 7 11 14 -7z"/>
<path d="M114 2571 c-2 -2 -4 -193 -4 -423 0 -411 0 -418 20 -418 11 0 20 -5
20 -11 0 -6 9 -8 23 -4 20 5 20 5 -3 -10 l-25 -16 25 7 c23 6 24 6 10 -12 -14
-17 -14 -18 2 -6 9 8 22 11 27 8 5 -4 13 -1 17 5 5 8 3 9 -6 4 -8 -5 -11 -4
-6 3 3 5 0 13 -6 15 -8 4 -9 6 -2 6 6 1 17 -6 24 -14 7 -8 19 -15 26 -15 8 0
14 -5 14 -12 0 -6 3 -8 7 -4 5 4 -1 14 -11 22 -23 16 -13 19 15 3 36 -19 59
-19 52 -2 -4 10 -2 14 4 10 6 -4 14 0 17 9 10 25 7 27 -12 13 -15 -13 -16 -12
-3 3 7 10 11 24 8 32 -4 9 1 17 11 19 16 4 16 5 0 6 -14 1 -15 6 -8 31 7 25 6
30 -8 31 -14 0 -15 2 -2 7 15 7 17 41 7 104 -2 14 0 32 5 40 7 10 8 8 4 -4 -8
-27 1 -22 19 10 9 15 14 19 11 8 -5 -13 -2 -17 9 -13 8 4 17 2 20 -3 3 -5 18
-2 33 6 29 15 56 19 34 5 -11 -6 -9 -9 6 -13 16 -5 19 -2 14 11 -5 14 -3 14
20 -1 17 -11 29 -14 33 -8 3 6 13 10 21 10 8 0 12 -4 9 -10 -3 -6 1 -7 10 -4
14 6 13 8 -5 21 -11 8 -20 20 -20 26 0 8 4 7 9 -2 14 -23 39 -22 34 0 -4 14 0
19 13 20 15 0 16 2 4 7 -8 4 -16 16 -17 27 -1 11 0 14 3 8 8 -18 25 -16 18 1
-3 8 2 16 13 19 16 4 16 5 1 6 -10 0 -18 6 -18 12 0 5 4 8 8 5 4 -2 9 4 9 15
1 15 -3 19 -16 14 -15 -4 -18 0 -17 22 l1 28 -132 0 c-95 0 -133 3 -133 12 0
6 -3 13 -7 16 -5 2 -3 2 4 1 7 -2 15 1 18 6 4 6 0 10 -8 10 -19 0 -17 31 3 48
13 11 11 12 -10 7 -17 -4 -21 -3 -11 3 9 7 10 12 2 16 -6 4 -11 13 -11 19 0 7
5 4 11 -6 10 -18 11 -18 26 0 8 10 12 13 9 7 -3 -7 5 -14 18 -16 17 -4 23 -1
19 9 -3 7 0 13 6 13 6 0 11 -6 11 -12 0 -9 4 -8 10 2 9 14 15 6 10 -15 -1 -5
8 -1 19 9 20 18 29 11 14 -10 -5 -5 0 -1 10 9 9 11 17 14 17 8 0 -12 37 -11
58 2 7 5 12 3 12 -3 0 -6 4 -8 10 -5 5 3 10 0 11 -7 1 -7 5 -2 9 12 5 17 8 19
9 8 1 -10 6 -18 12 -18 5 0 7 5 4 10 -11 17 7 11 21 -7 13 -17 14 -17 7 1 -5
14 -3 17 7 11 8 -5 11 -4 6 3 -3 5 0 13 6 16 7 3 2 3 -12 0 l-25 -7 25 23 c17
15 20 20 8 16 -10 -3 -18 -1 -18 4 0 6 8 10 18 10 13 0 14 2 4 9 -7 4 -12 14
-10 22 2 8 -3 13 -11 11 -12 -3 -12 0 -2 12 7 8 9 21 5 27 -5 8 -2 10 7 5 8
-4 4 1 -8 10 -13 9 -23 24 -23 33 0 14 -27 16 -261 16 -143 0 -262 -2 -265 -4z
m313 -563 c-3 -8 -6 -5 -6 6 -1 11 2 17 5 13 3 -3 4 -12 1 -19z m126 7 c-3 -9
-8 -14 -10 -11 -3 3 -2 9 2 15 9 16 15 13 8 -4z m-203 -111 c0 -8 -19 -13 -24
-6 -3 5 1 9 9 9 8 0 15 -2 15 -3z"/>
<path d="M1162 2556 c-46 -103 -333 -818 -330 -821 3 -3 16 -6 31 -7 14 -1 25
-5 25 -8 -2 -19 3 -30 11 -25 5 3 13 0 16 -6 5 -7 16 -2 33 13 14 13 22 18 19
12 -9 -16 19 -39 28 -24 5 8 11 7 22 -2 14 -11 15 -10 9 12 -6 20 -5 22 4 8 6
-10 17 -15 27 -11 12 5 14 3 8 -7 -5 -9 -4 -11 4 -6 6 4 9 12 6 17 -4 5 -1 9
4 9 6 0 11 5 11 11 0 5 -6 7 -12 3 -7 -4 -4 4 8 17 28 32 41 54 26 45 -15 -9
-15 14 -1 34 9 13 10 12 5 -3 -3 -11 -2 -16 4 -12 6 3 10 14 10 24 0 10 7 18
15 18 8 0 15 -5 15 -11 0 -5 7 -1 15 10 15 19 15 19 8 -1 -6 -18 -5 -18 10 -6
11 9 17 10 17 2 0 -6 5 -11 11 -11 6 0 8 7 5 17 -6 14 -3 14 15 -3 12 -10 19
-13 15 -6 -4 6 -2 12 3 12 6 0 11 -6 11 -12 0 -9 4 -8 10 2 5 8 10 10 10 4 0
-7 7 -14 15 -18 13 -5 14 -2 4 17 -12 21 -11 21 8 5 11 -10 24 -18 29 -18 5 0
2 5 -6 10 -8 5 -10 10 -4 10 17 0 40 -31 53 -70 15 -48 48 -76 72 -62 13 9 20
9 25 0 4 -6 3 -8 -3 -5 -6 4 -16 0 -22 -7 -8 -9 -8 -16 -2 -20 5 -4 13 -2 16
4 5 8 12 7 22 -2 14 -11 15 -10 9 12 -6 21 -5 22 4 8 6 -10 18 -18 25 -18 8 0
15 -5 15 -12 0 -6 3 -8 7 -4 5 4 -1 14 -11 22 -27 19 -12 18 27 -3 31 -16 32
-16 17 3 -15 18 -14 18 13 0 l29 -18 -7 24 c-5 17 -4 19 4 9 5 -8 17 -16 26
-17 13 -2 14 0 4 12 -10 12 -8 13 7 8 17 -5 17 -4 3 8 -9 7 -21 24 -28 38
l-12 25 21 -25 21 -25 -12 25 c-7 14 -12 28 -11 32 1 4 -5 5 -14 1 -14 -5 -15
-3 -4 18 12 21 12 23 -2 11 -19 -15 -31 -2 -17 18 12 20 11 30 -2 30 -5 0 -7
-6 -4 -12 4 -7 0 -5 -9 5 -8 11 -12 25 -9 33 3 8 1 14 -5 14 -5 0 -9 13 -8 29
2 22 -2 27 -13 23 -10 -4 -13 -1 -8 11 3 9 1 22 -6 29 -19 20 -51 82 -39 74 6
-3 9 1 8 11 -2 9 -9 19 -17 21 -11 3 -11 1 1 -8 10 -8 11 -10 2 -8 -8 2 -13 7
-12 11 1 5 -5 18 -13 30 -8 12 -13 30 -11 39 1 9 -4 19 -12 22 -7 3 -11 12 -8
21 3 8 1 15 -5 15 -6 0 -11 16 -11 35 0 19 -4 35 -10 35 -5 0 -7 -8 -3 -17 3
-10 3 -15 -1 -11 -4 3 -9 12 -10 20 -1 7 -7 22 -13 33 -5 11 -8 26 -5 34 3 9
0 11 -9 6 -8 -5 -11 -5 -7 0 4 4 2 15 -5 23 -6 9 -7 13 -1 9 6 -3 11 0 11 7 0
8 -6 12 -12 9 -7 -2 -17 9 -23 27 -8 22 -8 29 0 24 18 -12 -4 19 -25 35 -11 8
-17 21 -14 32 3 11 1 17 -3 14 -5 -3 -13 2 -18 11 -7 13 -24 18 -60 19 -42 1
-52 -2 -60 -19z m72 -374 c3 -5 -1 -9 -9 -9 -8 0 -12 4 -9 9 3 4 7 8 9 8 2 0
6 -4 9 -8z m40 -99 c6 -27 5 -29 -28 -29 -19 0 -34 3 -34 6 2 27 -2 32 -19 19
-16 -13 -17 -12 -5 3 7 9 21 15 31 13 10 -2 18 3 18 10 0 8 -5 11 -10 8 -6 -3
-8 -2 -5 3 3 5 8 18 12 28 6 18 8 18 20 -6 8 -15 17 -39 20 -55z m-349 -371
c-3 -3 -11 0 -18 7 -9 10 -8 11 6 5 10 -3 15 -9 12 -12z"/>
<path d="M1928 2570 c0 -3 -2 -193 -2 -422 l-1 -418 22 0 c13 0 23 -5 23 -11
0 -5 5 -7 12 -3 6 4 8 3 5 -2 -3 -6 -2 -16 4 -24 7 -13 9 -13 9 0 1 11 4 10
17 -5 14 -18 15 -18 9 -1 -5 14 -2 17 12 14 11 -3 27 -1 36 4 10 6 16 5 16 -2
0 -5 -5 -10 -12 -10 -6 0 -8 -3 -5 -6 4 -4 13 -1 21 5 10 8 16 9 21 1 4 -7 12
-7 24 0 10 5 22 6 26 2 5 -4 5 -1 1 6 -4 7 -12 9 -18 6 -7 -5 -8 -2 -4 5 5 7
13 10 20 8 7 -3 13 4 13 14 1 10 -2 19 -8 19 -5 0 -8 6 -6 13 1 6 -4 11 -11 9
-8 -1 -11 2 -7 8 3 6 10 8 15 5 16 -10 18 23 2 46 -14 21 -14 22 1 16 11 -4
14 -2 10 8 -3 8 -10 12 -17 8 -6 -4 -5 1 3 10 7 9 9 17 4 17 -5 0 -9 14 -9 30
0 17 4 30 8 30 5 0 7 -8 3 -19 -3 -11 1 -24 12 -32 16 -13 17 -12 5 2 -7 9
-10 23 -6 32 3 8 0 18 -5 22 -6 3 -9 11 -5 16 3 6 -2 17 -12 25 -18 14 -18 15
1 5 11 -5 59 -68 105 -139 58 -89 92 -132 108 -137 21 -5 22 -8 10 -22 -11
-15 -11 -16 6 -10 10 4 24 3 31 -3 9 -8 15 -8 20 0 5 8 11 7 22 -2 14 -11 15
-10 9 12 -6 21 -5 22 4 7 7 -10 22 -17 38 -16 15 0 37 -1 49 -4 18 -5 21 -2
17 19 -3 16 1 27 11 30 11 5 12 11 5 25 -8 14 -7 17 4 13 8 -3 17 0 22 7 5 8
3 10 -6 4 -9 -6 -10 -2 -5 15 5 17 4 21 -5 15 -9 -5 -11 -4 -6 4 6 9 11 9 21
1 12 -10 13 -6 5 21 -5 17 -12 34 -16 38 -4 3 -5 -1 -2 -10 4 -9 1 -16 -6 -16
-8 0 -10 11 -8 29 4 27 3 28 -45 28 -27 0 -55 6 -62 13 -11 10 -13 9 -7 -3 4
-8 0 -6 -8 5 -9 11 -14 25 -11 33 2 7 1 11 -3 8 -5 -3 -16 3 -24 13 -12 15
-13 22 -5 31 9 10 9 11 -2 5 -9 -5 -12 -3 -9 6 3 8 13 12 23 11 16 -3 17 -1 6
11 -9 12 -9 17 0 23 7 4 9 3 6 -3 -4 -6 0 -13 8 -16 10 -4 12 -1 8 10 -4 10
-2 14 4 10 5 -4 19 0 29 8 18 14 18 14 -5 10 -13 -2 -20 -1 -17 3 8 7 13 8 42
11 8 0 12 6 9 11 -4 6 -11 7 -17 4 -7 -4 -8 -2 -4 5 4 6 12 9 17 6 5 -4 9 -1
9 5 0 6 5 8 10 5 6 -3 10 -1 10 4 0 11 -15 15 -35 11 -5 -1 -6 2 -2 7 5 4 18
8 30 8 23 0 29 18 15 48 -5 10 -5 17 2 17 5 0 10 -5 10 -12 0 -6 3 -8 7 -4 5
4 -1 14 -11 22 -15 11 -16 14 -5 14 18 0 19 31 1 53 -7 7 -9 17 -5 20 3 4 0 7
-7 7 -9 0 -7 5 6 16 17 14 17 15 1 10 -15 -5 -17 -2 -12 15 5 15 4 19 -4 15
-9 -6 -16 19 -12 46 0 4 -7 4 -17 1 -9 -3 -13 -2 -9 2 4 5 -15 30 -44 56 -77
72 -117 82 -341 84 -104 0 -189 -2 -190 -5z m295 -213 c-4 -7 0 -6 10 2 9 7
17 9 17 3 0 -14 28 -23 35 -11 4 5 1 8 -6 7 -6 -2 -14 4 -16 12 -4 12 -3 12 5
2 5 -8 12 -12 15 -10 11 5 47 -31 47 -47 0 -9 -6 -31 -14 -49 -16 -38 -44 -49
-118 -45 -34 2 -44 6 -44 20 0 14 3 16 15 6 12 -10 13 -9 3 10 -8 14 -9 24 -2
28 14 9 12 21 -6 39 -9 9 -11 16 -4 16 6 0 9 4 5 9 -3 5 0 13 6 17 7 4 9 3 6
-3 -4 -6 0 -13 7 -16 17 -7 39 16 28 28 -4 5 -1 5 6 1 7 -4 9 -13 5 -19z m-53
-56 c0 -4 -6 -8 -14 -8 -8 0 -12 6 -9 14 5 13 23 9 23 -6z m-5 -569 c-3 -3
-11 0 -18 7 -9 10 -8 11 6 5 10 -3 15 -9 12 -12z m-36 -36 c-3 -3 -11 5 -18
17 -13 21 -12 21 5 5 10 -10 16 -20 13 -22z m372 11 c-10 -9 -11 -8 -5 6 3 10
9 15 12 12 3 -3 0 -11 -7 -18z"/>
<path d="M2888 2556 c-2 -12 -3 -201 -2 -421 l0 -400 22 -3 c12 -2 22 -8 22
-13 0 -6 6 -7 13 -3 9 6 9 4 -1 -8 -8 -10 -9 -19 -3 -22 5 -4 13 -2 16 4 5 8
12 7 23 -2 10 -8 13 -9 9 -1 -10 15 52 15 72 -1 11 -9 13 -6 6 14 -6 22 -5 23
6 9 8 -9 23 -19 34 -23 11 -4 17 -4 13 -1 -3 4 0 18 8 33 12 24 12 28 -3 40
-14 10 -14 12 -2 12 17 0 19 34 4 47 -4 5 -5 2 0 -6 5 -10 4 -12 -4 -7 -6 4
-9 11 -6 16 3 4 -1 11 -7 14 -7 3 -4 4 7 1 18 -4 20 0 20 39 0 34 -3 42 -15
39 -12 -4 -12 -3 -1 5 10 7 11 14 1 33 l-11 24 18 -23 c11 -13 40 -66 66 -117
46 -90 74 -123 93 -107 5 4 3 0 -4 -9 -15 -20 -7 -28 18 -22 11 3 17 10 13 16
-4 6 -1 7 6 3 7 -5 10 -15 7 -25 -5 -12 -2 -11 9 3 14 19 15 19 15 1 0 -18 0
-18 13 0 8 10 19 15 25 11 8 -5 10 -1 5 10 -5 13 -2 16 8 12 10 -4 15 1 15 13
0 15 -3 16 -16 6 -13 -11 -13 -10 -1 6 8 10 20 16 27 13 8 -3 11 0 7 9 -3 8
-10 12 -16 8 -6 -3 -7 -1 -3 5 4 7 15 12 24 12 13 0 13 2 -4 15 -18 15 -18 15
0 8 16 -5 18 -3 13 18 -6 23 -6 24 10 4 15 -20 15 -19 8 4 -5 17 -4 21 5 16 9
-6 9 -3 1 14 -10 18 -9 20 6 14 16 -6 16 -4 -2 17 l-20 23 23 -14 c12 -8 22
-21 21 -29 -1 -8 -1 -48 0 -87 1 -71 2 -73 26 -73 14 0 25 -5 25 -11 0 -5 -5
-7 -12 -3 -7 4 -8 3 -4 -4 4 -6 14 -9 24 -6 14 5 14 3 -2 -10 -11 -9 -15 -16
-9 -16 6 0 16 7 23 15 9 11 17 12 30 5 14 -7 23 -6 34 6 19 18 22 4 4 -15 -8
-8 -1 -7 20 3 17 9 32 12 32 7 0 -5 -6 -12 -12 -14 -10 -4 -10 -6 -1 -6 6 -1
15 4 18 9 4 7 13 6 27 -1 13 -7 18 -7 14 -1 -3 6 -1 14 5 17 5 4 8 13 5 21 -3
8 0 14 7 14 9 0 9 2 -1 8 -7 5 -10 16 -6 25 5 15 -3 21 -27 19 -3 -1 -6 6 -6
14 0 10 4 11 11 4 5 -5 17 -10 26 -10 12 1 12 2 -2 11 -10 5 -18 18 -18 27 0
15 2 15 10 2 7 -11 9 -6 7 17 -1 18 -5 33 -9 33 -5 0 -8 5 -8 11 0 5 4 8 9 5
5 -4 8 2 6 11 -1 10 2 23 7 30 6 7 5 14 -3 19 -8 5 -9 3 -4 -6 5 -9 4 -11 -4
-6 -8 5 -9 12 -2 19 11 14 11 25 0 53 -4 12 -5 25 -1 29 10 9 10 75 0 75 -4 0
-8 5 -8 11 0 5 5 7 11 3 7 -4 7 1 -1 16 -8 15 -8 20 -1 16 6 -4 11 -2 11 3 0
6 -4 11 -10 11 -5 0 -10 5 -10 11 0 5 4 8 8 5 5 -3 8 5 7 17 -2 12 -8 21 -14
19 -7 -1 -10 2 -6 8 3 6 11 8 16 5 5 -4 9 -1 9 4 0 10 -13 15 -31 13 -3 -1 -6
6 -6 14 0 10 4 11 11 4 5 -5 17 -10 26 -10 12 1 12 2 -2 11 -10 5 -18 18 -18
27 0 15 2 15 10 2 7 -11 9 -6 7 17 -1 18 -5 33 -9 33 -5 0 -8 5 -8 11 0 5 4 8
9 5 5 -4 8 2 6 11 -1 10 2 23 7 30 6 7 5 14 -3 19 -8 5 -9 3 -4 -6 5 -9 4 -11
-4 -6 -6 4 -8 13 -4 19 15 24 9 69 -12 83 -11 8 -20 20 -20 26 0 8 -20 12 -57
13 l-56 2 -142 -248 c-77 -137 -145 -251 -150 -254 -5 -3 -12 0 -16 6 -5 8 -2
10 7 5 8 -4 5 0 -5 8 -15 12 -16 16 -5 16 9 1 6 5 -7 13 -14 8 -21 21 -20 39
1 18 -2 24 -9 18 -6 -5 -15 1 -22 16 -8 18 -8 23 0 18 7 -3 3 2 -7 10 -11 9
-16 16 -10 16 5 0 4 4 -1 8 -17 12 -45 60 -45 77 0 9 -7 18 -15 21 -9 4 -14
12 -13 20 2 7 -6 20 -17 29 -11 9 -14 14 -8 10 9 -4 11 -1 7 9 -3 9 -10 13
-15 10 -5 -3 -9 4 -9 16 0 14 -4 19 -12 14 -8 -5 -8 -1 2 12 8 10 11 16 6 12
-10 -8 -23 4 -56 52 -13 19 -25 37 -27 39 -2 3 -28 6 -57 6 -48 2 -55 -1 -58
-19z m845 -81 c-3 -9 -8 -14 -10 -11 -3 3 -2 9 2 15 9 16 15 13 8 -4z m4 -60
c0 -8 -4 -12 -9 -9 -5 3 -6 10 -3 15 9 13 12 11 12 -6z m-4 -340 c-3 -9 -8
-14 -10 -11 -3 3 -2 9 2 15 9 16 15 13 8 -4z m0 -80 c-7 -21 -12 -19 -10 4 0
11 5 18 9 15 4 -3 5 -11 1 -19z m4 -60 c0 -8 -4 -12 -9 -9 -5 3 -6 10 -3 15 9
13 12 11 12 -6z m3 -159 c0 -2 -8 -10 -17 -17 -16 -13 -17 -12 -4 4 13 16 21
21 21 13z m-6 -48 c-3 -31 -3 -30 -14 -23 -7 4 -7 13 0 26 14 25 17 24 14 -3z
m-619 -18 c-3 -5 -12 -10 -18 -10 -7 0 -6 4 3 10 19 12 23 12 15 0z"/>
<path d="M1314 2529 c-3 -6 -2 -15 3 -20 5 -5 9 -1 9 11 0 23 -2 24 -12 9z"/>
<path d="M3046 2518 c3 -4 9 -8 15 -8 5 0 9 4 9 8 0 5 -7 9 -15 9 -8 0 -12 -4
-9 -9z"/>
<path d="M1350 2439 c0 -5 5 -7 10 -4 6 3 10 8 10 11 0 2 -4 4 -10 4 -5 0 -10
-5 -10 -11z"/>
<path d="M4300 2350 c-9 -6 -10 -10 -3 -10 6 0 15 5 18 10 8 12 4 12 -15 0z"/>
<path d="M2565 2320 c-3 -5 -1 -10 4 -10 6 0 11 5 11 10 0 6 -2 10 -4 10 -3 0
-8 -4 -11 -10z"/>
<path d="M1475 2161 c-6 -11 13 -26 22 -17 4 3 1 6 -6 6 -7 0 -9 5 -6 10 3 6
4 10 1 10 -3 0 -7 -4 -11 -9z"/>
<path d="M355 1961 c-3 -5 -2 -12 3 -15 5 -3 9 1 9 9 0 17 -3 19 -12 6z"/>
<path d="M4663 1825 c0 -7 6 -11 14 -8 7 3 13 6 13 8 0 2 -6 5 -13 8 -8 3 -14
-1 -14 -8z"/>
<path d="M2019 1606 c-2 -2 -45 -6 -95 -10 -170 -11 -375 -55 -495 -105 -130
-55 -246 -153 -285 -241 -10 -22 -26 -42 -36 -46 -30 -9 -58 -46 -58 -74 0
-33 42 -115 59 -115 6 0 16 -7 21 -15 5 -8 10 -10 11 -5 0 6 2 18 4 28 2 9 -1
15 -6 11 -12 -7 -11 -2 7 41 8 20 10 34 4 30 -7 -5 -9 2 -4 22 8 34 23 55 34
48 5 -3 15 4 23 16 9 13 17 16 22 10 3 -6 1 -11 -4 -11 -6 0 -11 -4 -11 -8 0
-4 9 -8 19 -8 11 0 17 4 15 8 -3 4 1 8 10 8 8 0 16 3 19 8 2 4 2 2 1 -5 -2 -7
1 -15 6 -18 6 -4 10 1 10 9 0 8 5 18 12 22 6 4 8 3 5 -3 -4 -6 0 -14 9 -17 12
-5 14 -1 8 17 -6 21 -6 21 15 -3 13 -14 20 -19 16 -12 -3 6 -3 12 2 13 4 0 16
2 25 4 10 2 21 -2 25 -7 3 -7 1 -8 -5 -4 -7 4 -12 2 -12 -3 0 -15 13 -14 29 2
9 7 11 7 8 1 -8 -13 11 -23 31 -17 6 3 9 10 5 16 -4 8 -1 7 9 -1 24 -20 61
-24 54 -7 -3 8 0 17 7 21 7 4 9 4 5 -1 -9 -10 10 -35 26 -35 6 0 4 5 -4 10
-12 7 -10 9 7 7 12 0 20 -4 17 -8 -2 -4 3 -10 12 -13 11 -4 15 -2 11 7 -3 9 4
13 23 12 16 0 26 -3 24 -6 -2 -4 3 -12 11 -19 13 -11 14 -10 9 4 -3 9 -1 16 5
16 6 0 11 -8 12 -17 0 -11 3 -13 6 -5 2 6 14 12 24 12 13 0 18 -4 13 -12 -4
-7 -4 -10 1 -6 4 4 14 3 21 -3 10 -8 15 -8 19 3 8 21 69 17 73 -5 2 -9 7 -15
12 -12 5 3 6 13 3 22 -6 15 -5 16 9 3 9 -8 13 -19 10 -25 -3 -5 2 -4 11 4 10
7 17 9 17 3 0 -6 8 -9 18 -7 9 2 21 4 25 4 5 1 5 6 1 13 -4 7 -3 8 5 4 9 -6 9
-11 0 -22 -16 -19 -4 -18 15 2 15 14 16 14 16 -1 0 -9 5 -13 10 -10 6 3 10 1
10 -6 0 -7 3 -9 6 -6 4 4 2 13 -4 20 -9 10 -8 14 3 14 8 0 12 -4 9 -8 -5 -8
14 -22 33 -25 7 -1 16 3 20 8 4 7 1 8 -7 3 -9 -5 -11 -4 -6 4 10 16 39 -6 29
-23 -3 -6 0 -6 8 2 7 6 17 12 22 12 4 0 5 -6 2 -12 -4 -7 1 -4 11 7 16 20 16
20 11 -3 -3 -12 -1 -20 4 -16 5 3 9 13 9 22 0 10 3 13 8 7 4 -5 16 -17 26 -25
18 -14 19 -13 13 2 -3 10 -1 20 5 24 7 4 8 3 4 -4 -4 -7 -1 -12 8 -12 9 0 15
-3 15 -7 -3 -20 2 -24 16 -13 8 7 15 9 15 5 0 -4 8 -1 17 6 11 9 14 10 9 2 -9
-16 72 -16 92 0 9 7 17 6 25 -2 9 -10 9 -11 -4 -6 -9 3 -22 -1 -30 -11 -13
-16 -12 -16 8 -6 16 9 23 9 26 -1 4 -9 6 -9 6 1 1 7 6 10 13 6 8 -5 9 -2 5 10
-4 10 -3 15 3 11 6 -3 10 -14 10 -23 0 -13 2 -14 9 -3 7 11 9 11 14 0 3 -9 6
-7 6 6 1 16 3 17 10 5 6 -8 7 -19 5 -25 -3 -5 2 -1 10 9 15 18 21 15 17 -8 -1
-5 4 -4 12 3 9 7 26 9 43 5 21 -6 25 -4 19 7 -8 12 -6 12 8 0 19 -15 80 -24
71 -10 -3 5 0 9 5 9 6 0 11 -4 11 -10 0 -5 4 -10 10 -10 5 0 6 8 3 17 -6 15
-5 16 9 3 9 -8 14 -18 11 -22 -2 -4 3 -5 11 -2 9 3 14 9 12 13 -7 10 67 0 81
-11 7 -6 14 -5 18 2 5 8 10 8 20 0 10 -8 15 -8 21 1 4 8 3 9 -4 5 -7 -4 -12
-2 -12 3 0 16 11 13 33 -6 19 -18 20 -17 7 7 -12 22 -12 24 2 12 25 -20 80
-23 106 -6 19 12 26 13 38 3 13 -10 17 -10 25 2 5 8 9 9 9 3 0 -10 47 -12 70
-3 3 1 8 1 13 0 4 0 7 6 7 15 0 14 1 14 16 0 19 -19 25 -20 18 -3 -3 8 4 13
16 14 12 1 18 -3 14 -9 -4 -6 2 -6 15 1 11 7 21 17 21 23 0 7 7 3 15 -8 15
-19 15 -19 8 1 -6 18 -5 19 12 5 15 -12 17 -12 10 -1 -6 11 -4 13 9 8 14 -6
17 -3 12 9 -6 15 -4 15 11 3 11 -9 14 -10 9 -1 -4 7 -2 12 4 12 6 0 9 4 6 9
-7 11 13 9 32 -2 7 -5 14 -2 18 7 3 8 14 13 26 11 16 -4 18 -2 8 10 -7 8 -17
12 -23 8 -6 -3 -7 -1 -3 6 6 9 11 9 22 0 17 -14 48 -4 38 12 -4 8 -3 9 4 5 7
-4 12 -2 12 3 0 6 7 11 15 11 8 0 19 9 25 20 6 11 18 20 28 20 15 0 15 2 2 10
-13 8 -13 10 2 10 9 0 20 5 24 12 4 6 3 8 -3 5 -5 -3 -10 0 -10 7 0 8 6 12 13
9 6 -2 15 1 20 8 5 8 3 10 -6 4 -8 -5 -11 -3 -8 6 3 8 13 13 23 11 16 -3 16
-2 1 20 -9 12 -16 27 -16 33 0 5 5 2 11 -8 6 -9 15 -15 20 -11 6 4 6 11 -2 20
-7 9 -8 14 -1 14 6 0 9 8 7 18 -2 9 -4 21 -4 25 -1 5 -5 6 -11 2 -5 -3 -7 -13
-4 -23 5 -13 4 -14 -4 -4 -5 8 -9 23 -8 35 1 18 7 22 34 23 36 1 50 -12 33
-29 -9 -9 -11 -7 -6 8 6 16 5 17 -4 5 -9 -12 -11 -13 -11 -1 0 8 -2 12 -5 9
-3 -3 -3 -12 0 -20 7 -18 82 -19 82 -1 0 7 -4 10 -9 7 -13 -8 -10 10 5 25 10
11 8 11 -10 2 -19 -10 -22 -9 -17 3 4 10 -6 22 -28 36 -46 28 -58 25 -58 -11
l0 -30 -47 5 c-27 3 -75 8 -108 11 -33 4 -71 8 -85 10 -14 2 -54 6 -90 10
-106 11 -130 13 -230 24 -151 16 -200 21 -290 27 -47 3 -105 8 -130 10 -54 6
-627 14 -631 10z m-831 -410 c2 -10 0 -16 -6 -12 -5 3 -15 -1 -23 -10 -7 -8
-21 -20 -31 -25 -14 -8 -17 -6 -15 8 2 10 9 28 16 41 15 28 54 27 59 -2z m316
-2 c3 -8 2 -12 -4 -9 -6 3 -10 10 -10 16 0 14 7 11 14 -7z m626 -58 c0 -2 -7
-7 -16 -10 -8 -3 -12 -2 -9 4 6 10 25 14 25 6z m122 -38 c-8 -8 -9 -4 -5 13 4
13 8 18 11 10 2 -7 -1 -18 -6 -23z m878 2 c0 -5 -2 -10 -4 -10 -3 0 -8 5 -11
10 -3 6 -1 10 4 10 6 0 11 -4 11 -10z m40 6 c0 -2 -7 -9 -15 -16 -13 -11 -14
-10 -9 4 5 14 24 23 24 12z m-539 -23 c13 -16 12 -17 -3 -4 -17 13 -22 21 -14
21 2 0 10 -8 17 -17z m337 -8 c-3 -3 -9 2 -12 12 -6 14 -5 15 5 6 7 -7 10 -15
7 -18z m-1834 0 c-4 -8 -11 -15 -16 -15 -6 0 -5 6 2 15 7 8 14 15 16 15 2 0 1
-7 -2 -15z m1703 -7 c-3 -8 -6 -5 -6 6 -1 11 2 17 5 13 3 -3 4 -12 1 -19z
m173 18 c0 -2 -7 -7 -16 -10 -8 -3 -12 -2 -9 4 6 10 25 14 25 6z m-1890 -40
c0 -3 -4 -8 -10 -11 -5 -3 -10 -1 -10 4 0 6 5 11 10 11 6 0 10 -2 10 -4z"/>
<path d="M1816 1148 c3 -4 9 -8 15 -8 5 0 9 4 9 8 0 5 -7 9 -15 9 -8 0 -12 -4
-9 -9z"/>
<path d="M3386 1151 c-3 -5 1 -11 9 -14 9 -4 12 -1 8 9 -6 16 -10 17 -17 5z"/>
</g>
</svg>
